# xmcd CD database file
#
# Track frame offsets:
#	150
#	13803
#	26295
#	39290
#	50675
#	63150
#	73918
#	87075
#	101573
#	115940
#	131335
#	143195
#	157298
#	172690
#	185815
#	198705
#	213023
#	226313
#	238718
#	248115
#	259875
#	270270
#	284125
#	295465
#	305135
#	315665
#	325628
#
# Disc length: 4612 seconds
#
# Revision: 2
# Processed by: cddbd v1.5.2PL0 Copyright (c) Steve Scherf et al.
# Submitted via: jetAudio 7
#
DISCID=9112021b
DTITLE=Chet Atkins - The Romantic Guitar
DYEAR=1991
DGENRE=Country
TTITLE0=You Needed Me
TTITLE1=Stranger On The Shore
TTITLE2=By The Time I Get To Phoenix
TTITLE3=Yours (Quiéreme Mucho)
TTITLE4=Malagueña
TTITLE5=Vaya Con Dios
TTITLE6=Long Long Ago
TTITLE7=The Last Waltz
TTITLE8=For The Good Times
TTITLE9=Autumn Leaves
TTITLE10=Three Little Words
TTITLE11=Lara's Theme
TTITLE12=In The Pines, Wildwood Flower, On Top Of Old Smokey
TTITLE13=Beautiful Dreamer
TTITLE14=In The Chapel In The Moonlight
TTITLE15=Yesterday
TTITLE16=Over The Rainbow
TTITLE17=Beautiful Brown Eyes
TTITLE18=Tennessee Waltz
TTITLE19=How's The World Treating You
TTITLE20=Sweet Dreams
TTITLE21=The Third Man Theme
TTITLE22=Cold, Cold Heart
TTITLE23=Moon Of Manakoora
TTITLE24=Jamaica Farewell
TTITLE25=Faded Love
TTITLE26=Chet's Medley - Four Walls - I Can't Stop Loving You - Send Me T
TTITLE26=he Pillow You Dream On - Five Hundred Miles - Oh, Lonesome Me
EXTD=
EXTT0=
EXTT1=
EXTT2=
EXTT3=
EXTT4=
EXTT5=
EXTT6=
EXTT7=
EXTT8=
EXTT9=
EXTT10=
EXTT11=
EXTT12=
EXTT13=
EXTT14=
EXTT15=
EXTT16=
EXTT17=
EXTT18=
EXTT19=
EXTT20=
EXTT21=
EXTT22=
EXTT23=
EXTT24=
EXTT25=
EXTT26=
PLAYORDER=
